<?xml version="1.0" encoding="UTF-8" standalone="no"?>
<!-- Created with Inkscape (http://www.inkscape.org/) -->

<svg
   xmlns:dc="http://purl.org/dc/elements/1.1/"
   xmlns:cc="http://creativecommons.org/ns#"
   xmlns:rdf="http://www.w3.org/1999/02/22-rdf-syntax-ns#"
   xmlns:svg="http://www.w3.org/2000/svg"
   xmlns="http://www.w3.org/2000/svg"
   xmlns:sodipodi="http://sodipodi.sourceforge.net/DTD/sodipodi-0.dtd"
   xmlns:inkscape="http://www.inkscape.org/namespaces/inkscape"
   width="210mm"
   height="297mm"
   viewBox="0 0 744.09448819 1052.3622047"
   id="svg2"
   version="1.1"
   inkscape:version="0.91 r13725"
   sodipodi:docname="fullstack.svg">
  <defs
     id="defs4">
    <inkscape:perspective
       sodipodi:type="inkscape:persp3d"
       inkscape:vp_x="0 : 526.1811 : 1"
       inkscape:vp_y="0 : 1000 : 0"
       inkscape:vp_z="744.09449 : 526.1811 : 1"
       inkscape:persp3d-origin="372.04724 : 350.7874 : 1"
       id="perspective4136" />
  </defs>
  <sodipodi:namedview
     id="base"
     pagecolor="#ffffff"
     bordercolor="#666666"
     borderopacity="1.0"
     inkscape:pageopacity="0.0"
     inkscape:pageshadow="2"
     inkscape:zoom="0.7"
     inkscape:cx="255.00206"
     inkscape:cy="598.90961"
     inkscape:document-units="px"
     inkscape:current-layer="layer1"
     showgrid="false"
     inkscape:window-width="1920"
     inkscape:window-height="1146"
     inkscape:window-x="0"
     inkscape:window-y="0"
     inkscape:window-maximized="1" />
  <metadata
     id="metadata7">
    <rdf:RDF>
      <cc:Work
         rdf:about="">
        <dc:format>image/svg+xml</dc:format>
        <dc:type
           rdf:resource="http://purl.org/dc/dcmitype/StillImage" />
        <dc:title></dc:title>
      </cc:Work>
    </rdf:RDF>
  </metadata>
  <g
     inkscape:label="Layer 1"
     inkscape:groupmode="layer"
     id="layer1">
    <g
       sodipodi:type="inkscape:box3d"
       id="g4138"
       style="fill:#000000;fill-opacity:1;stroke:#000000;stroke-opacity:1"
       inkscape:perspectiveID="#perspective4136"
       inkscape:corner0="3.7351467 : 1.302854 : 0 : 1"
       inkscape:corner7="1.2646354 : 0.97989973 : 0.25 : 1">
      <path
         sodipodi:type="inkscape:box3dside"
         id="path4150"
         style="fill:#e9e9ff;fill-rule:evenodd;stroke:none;stroke-width:1px;stroke-linecap:butt;stroke-linejoin:round;stroke-opacity:1"
         inkscape:box3dsidetype="11"
         d="m 111.94673,300.0172 109.9824,-222.195427 0,128.429857 -109.9824,158.54888 z"
         points="221.92913,77.821773 221.92913,206.25163 111.94673,364.80051 111.94673,300.0172 " />
      <path
         sodipodi:type="inkscape:box3dside"
         id="path4140"
         style="fill:#353564;fill-rule:evenodd;stroke:none;stroke-width:1px;stroke-linecap:butt;stroke-linejoin:round;stroke-opacity:1"
         inkscape:box3dsidetype="6"
         d="m 78.571428,288.0765 0,68.20365 33.375302,8.52036 0,-64.78331 z"
         points="78.571428,356.28015 111.94673,364.80051 111.94673,300.0172 78.571428,288.0765 " />
      <path
         sodipodi:type="inkscape:box3dside"
         id="path4142"
         style="fill:#4d4d9f;fill-rule:evenodd;stroke:none;stroke-width:1px;stroke-linecap:butt;stroke-linejoin:round;stroke-opacity:1"
         inkscape:box3dsidetype="5"
         d="M 78.571428,288.0765 164.28571,28.326019 221.92913,77.821773 111.94673,300.0172 Z"
         points="164.28571,28.326019 221.92913,77.821773 111.94673,300.0172 78.571428,288.0765 " />
      <path
         sodipodi:type="inkscape:box3dside"
         id="path4148"
         style="fill:#afafde;fill-rule:evenodd;stroke:none;stroke-width:1px;stroke-linecap:butt;stroke-linejoin:round;stroke-opacity:1"
         inkscape:box3dsidetype="13"
         d="m 78.571428,356.28015 85.714282,-185.34651 57.64342,35.31799 -109.9824,158.54888 z"
         points="164.28571,170.93364 221.92913,206.25163 111.94673,364.80051 78.571428,356.28015 " />
      <path
         sodipodi:type="inkscape:box3dside"
         id="path4146"
         style="fill:#d7d7ff;fill-rule:evenodd;stroke:none;stroke-width:1px;stroke-linecap:butt;stroke-linejoin:round;stroke-opacity:1"
         inkscape:box3dsidetype="14"
         d="m 164.28571,28.326019 0,142.607621 57.64342,35.31799 0,-128.429857 z"
         points="164.28571,170.93364 221.92913,206.25163 221.92913,77.821773 164.28571,28.326019 " />
      <path
         sodipodi:type="inkscape:box3dside"
         id="path4144"
         style="fill:#8686bf;fill-rule:evenodd;stroke:none;stroke-width:1px;stroke-linecap:butt;stroke-linejoin:round;stroke-opacity:1"
         inkscape:box3dsidetype="3"
         d="m 78.571428,288.0765 85.714282,-259.750481 0,142.607621 -85.714282,185.34651 z"
         points="164.28571,28.326019 164.28571,170.93364 78.571428,356.28015 78.571428,288.0765 " />
    </g>
    <g
       sodipodi:type="inkscape:box3d"
       id="g4166"
       style="fill:#000000;fill-opacity:1;stroke:#000000;stroke-opacity:1"
       inkscape:perspectiveID="#perspective4136"
       inkscape:corner0="3.2005333 : -0.44075978 : 0 : 1"
       inkscape:corner7="1.0506541 : -0.75668524 : 0.25 : 1">
      <path
         sodipodi:type="inkscape:box3dside"
         id="path4176"
         style="fill:#afafde;fill-rule:evenodd;stroke:none;stroke-width:1px;stroke-linecap:butt;stroke-linejoin:round;stroke-opacity:1"
         inkscape:box3dsidetype="13"
         d="M 88.571429,748.07649 181.42857,980.70873 242.57052,931.3176 125.39415,735.61195 Z"
         points="181.42857,980.70873 242.57052,931.3176 125.39415,735.61195 88.571429,748.07649 " />
      <path
         sodipodi:type="inkscape:box3dside"
         id="path4168"
         style="fill:#353564;fill-rule:evenodd;stroke:none;stroke-width:1px;stroke-linecap:butt;stroke-linejoin:round;stroke-opacity:1"
         inkscape:box3dsidetype="6"
         d="m 88.571429,672.8657 0,75.21079 36.822721,-12.46454 0,-70.98597 z"
         points="88.571429,748.07649 125.39415,735.61195 125.39415,664.62598 88.571429,672.8657 " />
      <path
         sodipodi:type="inkscape:box3dside"
         id="path4178"
         style="fill:#e9e9ff;fill-rule:evenodd;stroke:none;stroke-width:1px;stroke-linecap:butt;stroke-linejoin:round;stroke-opacity:1"
         inkscape:box3dsidetype="11"
         d="m 125.39415,664.62598 117.17637,129.37178 0,137.31984 -117.17637,-195.70565 z"
         points="242.57052,793.99776 242.57052,931.3176 125.39415,735.61195 125.39415,664.62598 " />
      <path
         sodipodi:type="inkscape:box3dside"
         id="path4170"
         style="fill:#4d4d9f;fill-rule:evenodd;stroke:none;stroke-width:1px;stroke-linecap:butt;stroke-linejoin:round;stroke-opacity:1"
         inkscape:box3dsidetype="5"
         d="M 88.571429,672.8657 181.42857,826.64791 242.57052,793.99776 125.39415,664.62598 Z"
         points="181.42857,826.64791 242.57052,793.99776 125.39415,664.62598 88.571429,672.8657 " />
      <path
         sodipodi:type="inkscape:box3dside"
         id="path4174"
         style="fill:#d7d7ff;fill-rule:evenodd;stroke:none;stroke-width:1px;stroke-linecap:butt;stroke-linejoin:round;stroke-opacity:1"
         inkscape:box3dsidetype="14"
         d="m 181.42857,826.64791 0,154.06082 61.14195,-49.39113 0,-137.31984 z"
         points="181.42857,980.70873 242.57052,931.3176 242.57052,793.99776 181.42857,826.64791 " />
      <path
         sodipodi:type="inkscape:box3dside"
         id="path4172"
         style="fill:#8686bf;fill-rule:evenodd;stroke:none;stroke-width:1px;stroke-linecap:butt;stroke-linejoin:round;stroke-opacity:1"
         inkscape:box3dsidetype="3"
         d="m 88.571429,672.8657 92.857141,153.78221 0,154.06082 -92.857141,-232.63224 z"
         points="181.42857,826.64791 181.42857,980.70873 88.571429,748.07649 88.571429,672.8657 " />
    </g>
    <text
       xml:space="preserve"
       style="font-style:normal;font-weight:normal;font-size:40px;line-height:125%;font-family:sans-serif;letter-spacing:0px;word-spacing:0px;fill:#000000;fill-opacity:1;stroke:none;stroke-width:1px;stroke-linecap:butt;stroke-linejoin:miter;stroke-opacity:1"
       x="284.28571"
       y="119.50506"
       id="text4180"
       sodipodi:linespacing="125%"><tspan
         sodipodi:role="line"
         id="tspan4182"
         x="284.28571"
         y="119.50506" /></text>
    <text
       xml:space="preserve"
       style="font-style:normal;font-weight:normal;font-size:40px;line-height:125%;font-family:sans-serif;letter-spacing:0px;word-spacing:0px;fill:#000000;fill-opacity:1;stroke:none;stroke-width:1px;stroke-linecap:butt;stroke-linejoin:miter;stroke-opacity:1"
       x="167.14285"
       y="89.505058"
       id="text4184"
       sodipodi:linespacing="125%"><tspan
         sodipodi:role="line"
         id="tspan4186"
         x="167.14285"
         y="89.505058">SERVER - a remote computer</tspan></text>
    <text
       xml:space="preserve"
       style="font-style:normal;font-weight:normal;font-size:40px;line-height:20.00000626%;font-family:sans-serif;letter-spacing:0px;word-spacing:0px;fill:#000000;fill-opacity:1;stroke:none;stroke-width:1px;stroke-linecap:butt;stroke-linejoin:miter;stroke-opacity:1"
       x="101.42857"
       y="978.07648"
       id="text4188"
       sodipodi:linespacing="20.000006%"><tspan
         sodipodi:role="line"
         id="tspan4190"
         x="101.42857"
         y="978.07648" /></text>
    <ellipse
       style="fill:#000000;fill-opacity:1;stroke:#000000;stroke-opacity:1"
       id="path4194"
       cx="325"
       cy="160.93364"
       rx="19.285715"
       ry="18.571428" />
    <ellipse
       style="fill:#000000;fill-opacity:1;stroke:#000000;stroke-opacity:1"
       id="path4196"
       cx="330"
       cy="258.79077"
       rx="24.285715"
       ry="27.857143" />
    <ellipse
       style="fill:#000000;fill-opacity:1;stroke:#000000;stroke-opacity:1"
       id="path4198"
       cx="273.57144"
       cy="732.36218"
       rx="42.142857"
       ry="32.857143" />
    <ellipse
       style="fill:#000000;fill-opacity:1;stroke:#000000;stroke-opacity:1"
       id="path4200"
       cx="285"
       cy="824.50507"
       rx="45"
       ry="30.714285" />
    <ellipse
       style="fill:#000000;fill-opacity:1;stroke:#000000;stroke-opacity:1"
       id="path4202"
       cx="297.85715"
       cy="913.07648"
       rx="46.42857"
       ry="30.714285" />
    <text
       xml:space="preserve"
       style="font-style:normal;font-weight:normal;font-size:40px;line-height:125%;font-family:sans-serif;letter-spacing:0px;word-spacing:0px;fill:#000000;fill-opacity:1;stroke:none;stroke-width:1px;stroke-linecap:butt;stroke-linejoin:miter;stroke-opacity:1"
       x="365.71429"
       y="179.50507"
       id="text4204"
       sodipodi:linespacing="125%"><tspan
         sodipodi:role="line"
         id="tspan4206"
         x="365.71429"
         y="179.50507">MySQL database</tspan></text>
    <text
       xml:space="preserve"
       style="font-style:normal;font-weight:normal;font-size:40px;line-height:125%;font-family:sans-serif;letter-spacing:0px;word-spacing:0px;fill:#000000;fill-opacity:1;stroke:none;stroke-width:1px;stroke-linecap:butt;stroke-linejoin:miter;stroke-opacity:1"
       x="371.42856"
       y="282.36221"
       id="text4208"
       sodipodi:linespacing="125%"><tspan
         sodipodi:role="line"
         id="tspan4210"
         x="371.42856"
         y="282.36221">PHP prog lang</tspan></text>
    <text
       xml:space="preserve"
       style="font-style:normal;font-weight:normal;font-size:40px;line-height:125%;font-family:sans-serif;letter-spacing:0px;word-spacing:0px;fill:#000000;fill-opacity:1;stroke:none;stroke-width:1px;stroke-linecap:butt;stroke-linejoin:miter;stroke-opacity:1"
       x="357.14285"
       y="383.79077"
       id="text4212"
       sodipodi:linespacing="125%"><tspan
         sodipodi:role="line"
         id="tspan4214"
         x="357.14285"
         y="383.79077">The &quot;Back End&quot;</tspan></text>
    <text
       xml:space="preserve"
       style="font-style:normal;font-weight:normal;font-size:40px;line-height:125%;font-family:sans-serif;letter-spacing:0px;word-spacing:0px;fill:#000000;fill-opacity:1;stroke:none;stroke-width:1px;stroke-linecap:butt;stroke-linejoin:miter;stroke-opacity:1"
       x="357.14285"
       y="752.36218"
       id="text4216"
       sodipodi:linespacing="125%"><tspan
         sodipodi:role="line"
         id="tspan4218"
         x="357.14285"
         y="752.36218">HTML</tspan></text>
    <text
       xml:space="preserve"
       style="font-style:normal;font-weight:normal;font-size:40px;line-height:125%;font-family:sans-serif;letter-spacing:0px;word-spacing:0px;fill:#000000;fill-opacity:1;stroke:none;stroke-width:1px;stroke-linecap:butt;stroke-linejoin:miter;stroke-opacity:1"
       x="362.85715"
       y="842.36218"
       id="text4220"
       sodipodi:linespacing="125%"><tspan
         sodipodi:role="line"
         id="tspan4222"
         x="362.85715"
         y="842.36218">CSS</tspan></text>
    <text
       xml:space="preserve"
       style="font-style:normal;font-weight:normal;font-size:40px;line-height:125%;font-family:sans-serif;letter-spacing:0px;word-spacing:0px;fill:#000000;fill-opacity:1;stroke:none;stroke-width:1px;stroke-linecap:butt;stroke-linejoin:miter;stroke-opacity:1"
       x="362.85715"
       y="935.21936"
       id="text4224"
       sodipodi:linespacing="125%"><tspan
         sodipodi:role="line"
         id="tspan4226"
         x="362.85715"
         y="935.21936">JavaScript</tspan></text>
    <path
       style="fill:none;fill-rule:evenodd;stroke:#000000;stroke-width:1px;stroke-linecap:butt;stroke-linejoin:miter;stroke-opacity:1"
       d="m 130,96.647919 c -13.80952,0 -27.61905,0 -41.428571,0 -4.748977,0 -9.878062,-0.775255 -14.285715,1.428571 -1.204677,0.602339 -1.736479,2.11003 -2.857143,2.85714 -0.885962,0.59064 -1.97118,0.83793 -2.857142,1.42857 -0.605519,0.40368 -3.990179,3.69465 -4.285715,4.28572 -0.212959,0.42592 0,0.95238 0,1.42857 0,1.42857 0,2.85714 0,4.28571 0,2.38096 0,4.76191 0,7.14286 0,2.85714 0,5.71429 0,8.57143 0,1.42857 0,2.85714 0,4.28571 0,0.47619 -0.150584,0.97682 0,1.42858 1.035809,3.10742 3.475402,4.90397 5.714286,7.14285 0.752092,0.75209 3.522737,3.90423 4.285714,4.28572 0.425918,0.21296 1.002654,-0.21296 1.428572,0 1.204677,0.60234 1.652465,2.2548 2.857143,2.85714 0.853758,0.42688 2.857142,-0.94042 2.857142,1.42857 0,2.16776 -2.003384,1.14399 -2.857142,1.42857 -1.010153,0.33672 -1.846991,1.09186 -2.857143,1.42857 -0.451754,0.15059 -1.032357,-0.26414 -1.428572,0 -0.786643,0.52443 -6.559025,6.36442 -7.142857,7.14286 -0.638876,0.85184 -1.091854,1.84699 -1.428571,2.85714 -0.150585,0.45176 0,0.95239 0,1.42858 0,1.42857 0,2.85714 0,4.28571 0,3.33333 0,6.66667 0,10 0,3.80952 0,7.61905 0,11.42857 0,0.95238 -0.353706,1.97288 0,2.85714 0.637651,1.59413 2.089309,2.75005 2.857143,4.28572 0.212958,0.42592 0,0.95238 0,1.42857 0.47619,0.95238 0.837929,1.97118 1.428571,2.85714 0.373555,0.56033 0.952381,0.95238 1.428571,1.42857 0.952381,0.95239 1.904762,1.90477 2.857143,2.85715 0.476191,0.47619 1.428572,0.75513 1.428572,1.42857 0,0.47619 -1.002654,0.21296 -1.428572,0 -0.602338,-0.30117 -0.826233,-1.1274 -1.428571,-1.42857 -1.675127,-0.83757 -1.695553,0.84777 -2.857143,1.42857 -0.425918,0.21296 -1.002654,-0.21296 -1.428571,0 -0.273458,0.13673 -5.577557,5.44083 -5.714286,5.71428 -0.212959,0.42592 0.264143,1.03236 0,1.42858 -0.747109,1.12066 -1.904762,1.90476 -2.857143,2.85714 -0.47619,0.47619 -1.127402,0.82623 -1.428571,1.42857 -0.212959,0.42592 0.212958,1.00265 0,1.42857 -0.30117,0.60234 -1.127403,0.82623 -1.428572,1.42857 -0.212959,0.42592 0.150585,0.97682 0,1.42857 -0.336717,1.01016 -1.033117,1.86851 -1.428571,2.85715 -0.559258,1.39814 -0.755137,2.93884 -1.428572,4.28571 -0.301169,0.60234 -1.055017,0.86824 -1.428571,1.42857 -0.590642,0.88597 -0.952381,1.90476 -1.428572,2.85715 -0.47619,0.95238 -1.17032,1.82414 -1.428571,2.85714 -0.230986,0.92394 0,1.90476 0,2.85714 -0.47619,0.95238 -1.091854,1.84699 -1.428571,2.85714 -0.150585,0.45176 0.264143,1.03236 0,1.42858 -0.747109,1.12066 -2.110034,1.73647 -2.857143,2.85714 -0.264143,0.39621 0,0.95238 0,1.42857 0,1.90476 0,3.80952 0,5.71429 0,0.47619 0,0.95238 0,1.42857 0,0.47619 0.212959,1.00265 0,1.42857 -0.30117,0.60234 -1.215613,0.78969 -1.428572,1.42857 -0.451754,1.35526 0,2.85714 0,4.28571 0,0.47619 -0.212959,1.00266 0,1.42858 0.30117,0.60233 1.215613,0.78969 1.428572,1.42857 0.301169,0.90351 -0.30117,1.95363 0,2.85714 0.214509,0.64353 3.677534,3.47481 4.285714,4.28571 0.669674,0.8929 2.647607,4.62222 4.285714,5.71429 7.216866,4.81124 0.0331,0.011 4.285715,1.42857 1.010152,0.33672 1.84699,1.09186 2.857142,1.42857 0.451754,0.15059 0.952381,0 1.428572,0 0.952381,0.95238 1.736479,2.11004 2.857143,2.85715 0.792429,0.52828 2.857143,-0.95239 2.857143,0 0,0.47619 -0.952381,0 -1.428572,0 -0.47619,0 -0.952381,0 -1.428571,0 -2.857143,0 -5.714286,0 -8.571429,0 -1.428571,0 -2.930452,-0.45176 -4.285714,0 -1.628822,0.54294 -2.81346,1.97379 -4.285714,2.85714 -5.077275,3.04636 -0.81976,-0.60881 -5.714286,4.28571 -0.476191,0.47619 -1.127402,0.82624 -1.428572,1.42857 -0.227623,0.45525 0,5.86612 0,7.14286 0,4.28572 0,8.57143 0,12.85714 0,1.90477 -0.373554,3.84652 0,5.71429 0.208824,1.04412 1.219749,1.81303 1.428572,2.85714 0.280166,1.40083 -0.530558,2.95932 0,4.28572 0.500215,1.25053 2.164184,1.70221 2.857143,2.85714 0.774751,1.29125 0.869314,2.88757 1.428571,4.28571 0.395455,0.98864 1.033117,1.86851 1.428572,2.85715 0.559257,1.39814 0.755136,2.93884 1.428571,4.28571 0.767834,1.53567 2.089309,2.75005 2.857143,4.28572 0.673435,1.34687 0.869314,2.88757 1.428571,4.28571 0.395455,0.98864 1.170321,1.82414 1.428572,2.85714 0.230986,0.92395 -0.30117,1.95364 0,2.85715 0.212959,0.63887 1.127402,0.82623 1.428571,1.42857 0.212959,0.42591 0,0.95238 0,1.42857 0.476191,0.95238 0.83793,1.97118 1.428572,2.85714 0.396061,0.59409 5.203347,5.45882 5.714285,5.71429 0.434763,0.21738 3.642347,0 4.285715,0 1.428571,0 3.007961,0.63887 4.285714,0 1.204677,-0.60234 1.904762,-1.90476 2.857143,-2.85715 0.47619,-0.47619 1.428571,-0.75513 1.428571,-1.42857 0,-1.73189 -1.78416,0.35559 -2.857143,1.42857 -0.952381,0.95239 -1.736479,2.11004 -2.857143,2.85715 -0.885962,0.59064 -2.104219,0.67565 -2.857142,1.42857 -0.752924,0.75292 -0.952381,1.90476 -1.428572,2.85714 -0.952381,1.90476 -2.183708,3.69398 -2.857143,5.71429 -0.150584,0.45175 0.150585,0.97681 0,1.42857 -0.336717,1.01015 -1.219748,1.81302 -1.428571,2.85714 -0.280166,1.40083 0.451754,2.93045 0,4.28572 -0.542941,1.62882 -2.089309,2.75004 -2.857143,4.28571 -0.187815,0.37563 0,4.96726 0,5.71429 0,1.47805 -0.272147,8.91141 0,10 0.258251,1.033 0.83793,1.97118 1.428571,2.85714 0.373555,0.56033 0.952381,0.95238 1.428572,1.42857 0.47619,0.47619 0.789695,1.21561 1.428571,1.42857 0.903508,0.30117 2.005308,-0.42592 2.857143,0 1.204677,0.60234 1.652466,2.25481 2.857143,2.85714 1.277753,0.63888 2.857143,0 4.285714,0 2.857143,0 5.714286,0 8.571429,0 4.761905,0 9.523809,0 14.285714,0 4.000003,0 1.714286,0 5.714283,0 0.95238,0 1.9332,0.23099 2.85715,0 1.46088,-0.36522 2.82482,-1.06335 4.28571,-1.42857 0.46197,-0.11549 0.9666,0.1155 1.42857,0 1.46089,-0.36522 2.82483,-1.06335 4.28572,-1.42857 1.34453,-0.33613 2.94117,0.33614 4.28571,0 1.033,-0.25825 1.90476,-0.95238 2.85714,-1.42857 0.95238,-0.47619 1.97118,-0.83793 2.85715,-1.42857 0.56033,-0.37356 0.86824,-1.05502 1.42857,-1.42857 0.88596,-0.59064 1.97118,-0.83793 2.85714,-1.42857 1.12066,-0.74711 1.73648,-2.11004 2.85714,-2.85715 0.88597,-0.59064 2.00531,-0.78969 2.85715,-1.42857 2.94429,-2.20822 5.64834,-6.23296 8.57142,-8.57143 1.3407,-1.07255 2.91218,-1.82698 4.28572,-2.85714 0.53875,-0.40406 0.88982,-1.02451 1.42857,-1.42857 1.37354,-1.03016 2.91217,-1.82699 4.28571,-2.85714 0.53875,-0.40407 0.95239,-0.95239 1.42858,-1.42858 1.90476,-1.90476 3.80952,-3.80952 5.71428,-5.71428 0.47619,-0.47619 0.88982,-1.02451 1.42857,-1.42857 1.37355,-1.03016 2.91217,-1.82699 4.28572,-2.85715 1.88352,-1.41263 3.84728,-4.46961 5.71428,-5.71428 1.77193,-1.18128 3.94236,-1.67586 5.71429,-2.85714 1.12066,-0.74711 1.65246,-2.25481 2.85714,-2.85715 0.42592,-0.21296 1.00266,0.21296 1.42857,0 0.60234,-0.30117 0.7897,-1.21561 1.42857,-1.42857 0.90351,-0.30117 1.9332,0.23099 2.85715,0 1.033,-0.25825 1.84699,-1.09185 2.85714,-1.42857 0.45175,-0.15058 1.03236,0.26414 1.42857,0 1.12067,-0.74711 1.73648,-2.11003 2.85714,-2.85714 0.39622,-0.26415 0.97682,0.15058 1.42858,0 1.01015,-0.33672 1.82414,-1.17032 2.85714,-1.42857 1.08859,-0.27215 8.52194,0 10,0 2.38095,0 4.7619,0 7.14286,0 3.40698,0 5.23373,-0.24028 8.57142,1.42857 0.60234,0.30117 1.12741,0.82623 1.42858,1.42857 1.57915,3.15831 1.42857,3.27924 1.42857,5.71428 0,0.95239 -0.23099,1.9332 0,2.85715 0.25825,1.033 1.17032,1.82414 1.42857,2.85714 0.34648,1.38592 0,2.85714 0,4.28571 0,3.80953 0,7.61905 0,11.42858 0,1.27674 0.22762,6.68761 0,7.14285 -0.30117,0.60234 -1.90476,0.95238 -1.42857,1.42857 0.0361,0.0361 5.06227,0.21734 5.71428,0 1.01016,-0.33671 1.84699,-1.09185 2.85715,-1.42857 0.45175,-0.15058 1.00265,0.21296 1.42857,0 0.60234,-0.30117 0.82623,-1.1274 1.42857,-1.42857 0.42592,-0.21296 0.97682,0.15059 1.42857,0 1.01015,-0.33672 1.84699,-1.09185 2.85714,-1.42857 0.98262,-0.32754 3.44283,0.42144 4.28572,0 0.60234,-0.30117 0.78969,-1.21561 1.42857,-1.42857 0.76801,-0.256 4.50478,0 5.71428,0 1.42858,0 2.85715,0 4.28572,0 0.95238,0 1.95363,-0.30117 2.85714,0 1.01015,0.33672 1.90476,0.95238 2.85714,1.42857 0.95239,0.47619 1.97118,0.83793 2.85715,1.42857 1.64835,1.0989 2.63736,3.18681 4.28571,4.28572 0.88596,0.59064 1.97118,0.83793 2.85714,1.42857 0.60552,0.40368 3.99018,3.69464 4.28572,4.28571 0.21296,0.42592 0,0.95238 0,1.42857 0,0.95238 0,1.90476 0,2.85715 0,3.80952 0,7.61904 0,11.42857 0,1.94279 -0.76934,4.61533 1.42857,5.71428 0.38071,0.19036 7.92515,0 8.57143,0 3.33333,0 6.66667,0 10,0 0.33947,0 5.3941,0.1601 5.71428,0 0.60234,-0.30117 0.86824,-1.05501 1.42858,-1.42857 10.35797,-5.17899 -2.25877,1.50585 4.28571,-2.85714 0.88596,-0.59064 2.02568,-0.7634 2.85714,-1.42857 2.52308,-2.01846 6.03573,-6.03573 8.57143,-8.57143 0.47619,-0.47619 0.95238,-0.95238 1.42857,-1.42857 0.47619,-0.47619 0.82624,-1.1274 1.42857,-1.42857 0.42592,-0.21296 0.95239,0 1.42858,0 1.42857,0 2.89979,-0.34648 4.28571,0 1.033,0.25825 1.97118,0.83793 2.85714,1.42857 0.76419,0.50945 5.60861,5.57338 5.71429,5.71428 0.63888,0.85184 0.83793,1.97118 1.42857,2.85715 0.37355,0.56033 0.95238,0.95238 1.42857,1.42857 0.47619,0.47619 0.88983,1.02451 1.42857,1.42857 1.37355,1.03016 2.91217,1.82698 4.28572,2.85714 0.53875,0.40406 0.82623,1.1274 1.42857,1.42857 1.34687,0.67344 2.85714,0.95238 4.28571,1.42857 1.42857,0.47619 2.80036,1.18102 4.28572,1.42858 1.40913,0.23485 2.91211,-0.39246 4.28571,0 2.04765,0.58504 3.69398,2.1837 5.71429,2.85714 0.90351,0.30117 1.90476,0 2.85714,0 1.42857,0 2.85714,0 4.28571,0 1.42858,0 2.85715,0 4.28572,0 0.95238,0 1.95363,0.30117 2.85714,0 1.26121,-0.4204 7.441,-3.53209 8.57143,-4.28572 1.23271,-0.82181 3.16988,-3.16987 4.28571,-4.28571 0.47619,-0.47619 0.82624,-1.1274 1.42858,-1.42857 0.42591,-0.21296 1.00265,0.21296 1.42857,0 0.60234,-0.30117 0.78969,-1.21561 1.42857,-1.42857 0.90351,-0.30117 1.90476,0 2.85714,0 0.47619,0 0.97682,-0.15059 1.42857,0 4.40469,1.46823 3.3068,3.08197 8.57143,5.71428 1.75611,0.87805 3.87591,0.73918 5.71429,1.42857 1.99399,0.74775 3.71291,2.12938 5.71428,2.85715 8.58646,3.12235 9.22588,2.45872 17.14286,4.28571 3.82621,0.88297 7.63439,1.84536 11.42857,2.85714 3.34967,0.89325 6.56812,2.36688 10,2.85715 3.29983,0.4714 6.66667,0 10,0 3.33334,0 6.66667,0 10,0 4.76191,0 9.52381,0 14.28572,0 0.37313,0 7.85321,0.2394 8.57142,0 1.01016,-0.33672 1.84699,-1.09186 2.85715,-1.42857 0.98261,-0.32754 3.44283,0.42144 4.28571,0 1.71429,-0.85715 2.57143,-3.42858 4.28572,-4.28572 0.42591,-0.21296 1.00265,0.21296 1.42857,0 0.60234,-0.30117 0.95238,-0.95238 1.42857,-1.42857 1.42857,-0.47619 2.93884,-0.75514 4.28571,-1.42857 0.60234,-0.30117 0.95238,-0.95238 1.42857,-1.42857 0.4762,-0.47619 1.05502,-0.86824 1.42858,-1.42857 0.86998,-1.30499 1.2194,-3.46685 2.85714,-4.28572 0.42592,-0.21296 0.95238,0 1.42857,0 0.47619,0 0.95238,0 1.42857,0 2.38095,0 4.76191,0 7.14286,0 5.71428,0 11.42857,0 17.14286,0 5.23809,0 10.48523,-0.30759 15.71428,0 5.25062,0.30886 10.46054,1.17839 15.71429,1.42857 4.75651,0.2265 9.52381,0 14.28571,0 4.28572,0 8.57143,0 12.85714,0 5.71429,0 11.42858,0 17.14286,0 1.90476,0 3.82867,0.26938 5.71429,0 4.31458,-0.61637 6.60682,-2.99974 10,-5.71428 0.52586,-0.42069 0.82623,-1.1274 1.42857,-1.42857 0.42592,-0.21296 1.00265,0.21295 1.42857,0 0.76298,-0.38149 3.53362,-3.53363 4.28571,-4.28572 0.95239,-0.95238 1.90477,-1.90476 2.85715,-2.85714 0.47619,-0.47619 1.21561,-0.7897 1.42857,-1.42857 0.30117,-0.90351 0,-1.90476 0,-2.85715 0,-0.47619 -0.21296,-1.00265 0,-1.42857 0.30117,-0.60234 1.1274,-0.82623 1.42857,-1.42857 0.44244,-0.88487 -0.42269,-5.2916 0,-5.71428 3.46383,-3.46384 10.11921,0.47606 14.28571,-2.85715 1.3407,-1.07255 1.78459,-2.94501 2.85715,-4.28571 0.84138,-1.05173 1.90476,-1.90476 2.85714,-2.85714 3.37757,-3.37757 6.12792,-5.72386 8.57143,-10 0.74711,-1.30745 0.86931,-2.88758 1.42857,-4.28572 2.59974,-6.49934 0.20042,1.64182 4.28571,-8.57143 0.35371,-0.88426 -0.30116,-1.95363 0,-2.85714 0.33672,-1.01015 1.09186,-1.84699 1.42858,-2.85714 0.42783,-1.2835 -0.32896,-2.96988 0,-4.28572 0.36522,-1.46088 1.06335,-2.82483 1.42857,-4.28571 0.11549,-0.46197 -0.15059,-0.97682 0,-1.42857 0.33672,-1.01016 1.09185,-1.84699 1.42857,-2.85715 0.15058,-0.45175 -0.26414,-1.03235 0,-1.42857 0.74711,-1.12066 1.90476,-1.90476 2.85714,-2.85714 0.47619,-0.47619 1.1274,-0.82623 1.42857,-1.42857 0.67344,-1.34687 0.86932,-2.88757 1.42857,-4.28572 0.39546,-0.98863 1.17033,-1.82414 1.42858,-2.85714 0.23098,-0.92394 -0.35371,-1.97288 0,-2.85714 0.63765,-1.59413 1.97379,-2.81346 2.85714,-4.28572 4.14008,-6.90013 -2.29615,2.07175 4.28571,-7.14285 1.3839,-1.93746 3.06073,-3.67264 4.28572,-5.71429 4.77497,-7.95829 4.55972,-9.53044 7.14285,-18.57143 0.95239,-3.33333 1.90477,-6.66666 2.85715,-10 0.95238,-3.33333 2.42715,-6.56005 2.85714,-10 0.53158,-4.25262 -0.23773,-8.57802 0,-12.85714 0.23919,-4.30545 1.18938,-8.55169 1.42857,-12.85714 0.3698,-6.65641 0,-13.33334 0,-20 0,-7.14286 0,-14.28572 0,-21.42857 0,-1.90477 0,-3.80953 0,-5.71429 0,-1.90476 0.46197,-3.8664 0,-5.71429 -0.5165,-2.066 -2.2721,-3.66663 -2.85714,-5.71428 -0.39246,-1.37361 0.34648,-2.8998 0,-4.28572 -0.16333,-0.65332 -0.95238,-0.95238 -1.42857,-1.42857 -0.47619,-0.47619 -0.7897,-1.21561 -1.42857,-1.42857 -0.90351,-0.30117 -2.18371,0.67344 -2.85715,0 -1.06479,-1.06479 -0.75513,-2.93884 -1.42857,-4.28571 -0.30117,-0.60234 -1.21561,-0.7897 -1.42857,-1.42857 -0.30117,-0.90351 0,-1.90477 0,-2.85715 0,-1.42857 0.34648,-2.89979 0,-4.28571 -0.16333,-0.65333 -1.1274,-0.82623 -1.42857,-1.42857 -0.67344,-1.34687 -1.06335,-2.82483 -1.42857,-4.28572 -0.23099,-0.92394 0.52828,-2.06471 0,-2.85714 -0.74711,-1.12066 -2.11004,-1.73648 -2.85715,-2.85714 -0.26414,-0.39622 0.21296,-1.00266 0,-1.42857 -0.30116,-0.60234 -0.95238,-0.95239 -1.42857,-1.42858 -0.47619,-0.47619 -0.82623,-1.1274 -1.42857,-1.42857 -1.34687,-0.67343 -2.93884,-0.75513 -4.28571,-1.42857 -0.60234,-0.30117 -0.95238,-0.95238 -1.42857,-1.42857 -0.47619,-0.47619 -1.12741,-0.82623 -1.42858,-1.42857 -0.21295,-0.42592 0.21296,-1.00266 0,-1.42857 -0.30116,-0.60234 -0.95238,-0.95238 -1.42857,-1.42857 -0.47619,-0.47619 -0.82623,-1.12741 -1.42857,-1.42858 -0.42592,-0.21295 -1.00265,0.21296 -1.42857,0 -0.60234,-0.30117 -0.86824,-1.05501 -1.42857,-1.42857 -0.88596,-0.59064 -1.90476,-0.95238 -2.85714,-1.42857 -0.95238,-0.95238 -1.77965,-2.04902 -2.85715,-2.85714 -0.85183,-0.63888 -1.90476,-0.95238 -2.85714,-1.42857 -0.95238,-0.47619 -1.84699,-1.09186 -2.85714,-1.42857 -0.45176,-0.15059 -1.00266,0.21295 -1.42857,0 -0.60234,-0.30117 -0.95238,-0.95239 -1.42858,-1.42858 -1.6345,-1.6345 -1.6911,-1.99227 -4.28571,-2.85714 -0.806,-0.26866 -3.34699,0 -4.28571,0 -0.95238,0 -1.90477,0 -2.85715,0 -0.47619,0 -1.42857,0.47619 -1.42857,0 0,-0.47619 1.90476,0 1.42857,0 -1.42857,0 -2.85714,0 -4.28571,0 -7.61905,0 -15.2381,0 -22.85714,0 -9.52381,0 -19.04762,0 -28.57143,0 -3.80953,0 -7.61905,0 -11.42857,0 -1.90477,0 -3.84652,-0.37355 -5.71429,0 -0.91821,0.18364 -3.22495,3.75533 -4.28571,4.28572 -2.32264,1.16131 -6.02818,-3.17104 -7.14286,-4.28572 -2.72849,-2.72849 0.0386,-0.26253 -4.28572,-2.85714 -1.47225,-0.88335 -2.91217,-1.82699 -4.28571,-2.85714 -3.37299,-2.52975 1.17721,-1.13427 -5.71429,-2.85715 -0.92394,-0.23098 -1.90476,0 -2.85714,0 -1.42857,0 -2.85714,0 -4.28571,0 -1.63809,0 -4.23444,-0.36996 -5.71429,0 -3.09145,0.77287 -7.62895,6.20038 -10,8.57143 -0.47619,0.47619 -0.95238,0.95238 -1.42857,1.42857 -0.47619,0.47619 -0.82623,1.1274 -1.42857,1.42857 -0.42592,0.21296 -1.00265,-0.21295 -1.42857,0 -0.60234,0.30117 -0.82624,1.12741 -1.42857,1.42858 -0.42592,0.21295 -0.95238,0 -1.42858,0 -1.42857,0 -3.00796,0.63887 -4.28571,0 -1.20468,-0.60234 -1.90476,-1.90477 -2.85714,-2.85715 -0.47619,-0.47619 -1.05502,-0.86824 -1.42857,-1.42857 -0.59065,-0.88596 -0.54261,-2.2665 -1.42858,-2.85714 -0.79242,-0.52829 -1.97287,0.3537 -2.85714,0 -1.59413,-0.63765 -2.71676,-2.15983 -4.28571,-2.85714 -2.75212,-1.22317 -5.71429,-1.90477 -8.57143,-2.85715 -7.92007,-2.64002 -12.6524,-4.54413 -21.42857,-5.71428 -2.83208,-0.37761 -5.71429,0 -8.57143,0 -3.80952,0 -7.61905,0 -11.42857,0 -0.47619,0 -0.95238,0 -1.42857,0 -0.47619,0 -1.00266,-0.21296 -1.42858,0 -0.60233,0.30117 -0.95238,0.95238 -1.42857,1.42857 -0.47619,0.47619 -0.95238,0.95238 -1.42857,1.42857 -2.07321,2.07321 -4.96463,4.14425 -5.71428,7.14286 -0.23099,0.92394 0.30117,1.95363 0,2.85714 -0.21296,0.63888 -0.95238,0.95238 -1.42858,1.42857 -0.47619,0.47619 -0.82623,1.1274 -1.42857,1.42857 -0.32018,0.1601 -5.37481,0 -5.71428,0 -1.42857,0 -2.85715,0 -4.28572,0 -1.42857,0 -2.9481,0.50161 -4.28571,0 -2.59985,-0.97494 -4.5798,-3.21777 -7.14286,-4.28571 -3.20005,-1.33335 -6.71118,-1.76087 -10,-2.85714 -5.28764,-1.76255 -10.32111,-4.30737 -15.71428,-5.71429 -11.21103,-2.92461 -23.04544,-2.90422 -34.28572,-5.71429 -5.84354,-1.46088 -11.21663,-4.63679 -17.14286,-5.71428 -4.68509,-0.85184 -9.52381,0 -14.28571,0 -4.28571,0 -8.57143,0 -12.85714,0 -1.42857,0 -2.93046,-0.45176 -4.28572,0 -0.63887,0.21296 -0.95238,0.95238 -1.42857,1.42857 -0.47619,0.47619 -1.1274,0.82623 -1.42857,1.42857 -0.21296,0.42592 0.21296,1.00266 0,1.42857 -0.30117,0.60234 -0.82623,1.1274 -1.42857,1.42857 -0.42592,0.21296 -0.95238,0 -1.42857,0 -0.47619,0 -0.95238,0 -1.42857,0 -1.42858,0 -2.85715,0 -4.28572,0 -1.42857,0 -2.87658,0.23486 -4.28571,0 -1.48536,-0.24756 -2.7915,-1.24179 -4.28572,-1.42857 -2.36256,-0.29532 -4.80814,0.46695 -7.14285,0 -2.51457,-0.50291 -4.71009,-2.04622 -7.14286,-2.85714 -1.86263,-0.62088 -3.80953,-0.95238 -5.71429,-1.42857 -1.90476,-0.47619 -3.77063,-1.15091 -5.71428,-1.42857 -1.41422,-0.20203 -2.85715,0 -4.28572,0 -0.47619,0 -0.95238,0 -1.42857,0 -0.47619,0 -1.00265,-0.21296 -1.42857,0 -0.60234,0.30117 -0.95238,0.95238 -1.42857,1.42857 -0.47619,0.47619 -1.1274,0.82623 -1.42857,1.42857 -0.42592,0.85184 0.42591,2.00531 0,2.85714 -0.60234,1.20468 -2.25481,1.65247 -2.85715,2.85715 -0.72176,1.44352 1.28297,3.60782 -1.42857,4.28571 -1.38591,0.34648 -2.85714,0 -4.28571,0 -0.47619,0 -1.03236,0.26414 -1.42857,0 -1.12067,-0.74711 -1.65247,-2.2548 -2.85715,-2.85714 -1.7561,-0.87805 -3.85165,-0.8077 -5.71428,-1.42857 -2.43277,-0.81093 -4.62829,-2.35423 -7.14286,-2.85715 -2.33471,-0.46694 -4.7619,0 -7.14286,0 -2.38095,0 -4.7619,0 -7.14285,0 -2.85715,0 -5.743,0.40406 -8.57143,0 -0.66667,-0.0952 -0.77524,-1.26524 -1.42857,-1.42857 -1.69732,-0.42433 -5.09194,0 -7.14286,0 -1.42857,0 -2.93045,-0.45175 -4.28571,0 -0.63888,0.21296 -0.82624,1.1274 -1.42858,1.42857 -0.42591,0.21296 -0.95238,0 -1.42857,0 -0.47619,0 -0.97681,0.15059 -1.42857,0 -3.12263,-1.04088 -4.91248,-3.48391 -7.14286,-5.71428 -0.47619,-0.47619 -0.86824,-1.05502 -1.42857,-1.42857 -7.21686,-4.811248 -0.0331,-0.011 -4.28571,-1.42858 -10.34774,-3.449242 2.25229,0.41187 -4.28572,-2.857139 -0.61011,-0.305059 -6.57812,0 -7.14285,0 -2.38096,0 -4.76191,0 -7.14286,0 -0.95238,0 -1.95363,-0.301169 -2.85714,0 -0.63888,0.212959 -0.7897,1.215609 -1.42857,1.428569 -0.90351,0.30117 -1.90477,0 -2.85715,0 -0.47619,0 -1.03235,0.26415 -1.42857,0 -1.07745,-0.7183 -8.18994,-8.189935 -8.57143,-8.571426 -3.71689,-3.71689 1.94619,1.520271 -5.71428,-2.857143 -2.06725,-1.181283 -3.52585,-3.347811 -5.71429,-4.285714 -1.31306,-0.562742 -2.86817,0.177193 -4.28571,0 -2.40936,-0.301169 -4.80031,-0.789695 -7.14286,-1.428571 -2.90557,-0.792429 -5.61822,-2.266502 -8.57143,-2.857143 -1.86777,-0.373555 -3.80952,0 -5.71428,0 -0.95239,0 -1.90477,0 -2.85715,0 -0.47619,0 -1.00265,-0.212959 -1.42857,0 C 120.82623,81.234802 120,81.688769 120,82.362204 c 0,1.213922 3.05016,5.096511 4.28571,5.714286 4.20402,2.102006 -1.88083,-3.309404 2.85715,1.428571 0.47619,0.476191 1.17846,0.803303 1.42857,1.428572 0.72918,1.822956 -0.32753,4.836234 1.42857,5.714286 1.53567,0.767834 2.62005,-2.440727 4.28571,-2.857143 2.08076,-0.52019 1.42858,6.207612 1.42858,7.142854"
       id="path4230"
       inkscape:connector-curvature="0" />
    <path
       style="fill:#ffd5d5;fill-opacity:1;stroke:#000000;stroke-opacity:1"
       id="path4232"
       d="m 111.21719,351.29511 c 4.8769,-0.87864 9.75955,-1.88633 14.73125,-1.78103 4.53167,0.72144 8.8632,2.47794 12.79187,4.81771 3.89388,2.43391 7.84629,4.76024 11.74186,7.19274 3.82553,2.58039 6.22027,6.48838 8.88545,10.1392 2.43986,3.3384 4.27034,7.05564 6.43219,10.56681 2.50266,3.7957 4.0885,8.07835 5.76462,12.27828 2.12442,4.46675 3.77263,9.13355 4.99596,13.92196 1.24696,3.95517 2.08101,7.98309 2.54269,12.09901 0.3215,3.5978 0.34302,7.21619 0.33864,10.82603 0.009,3.57834 -0.0162,7.15656 -0.0157,10.73488 0.41578,4.29127 -0.91043,8.20451 -2.4047,12.14999 -1.88645,4.53769 -4.56921,8.68168 -6.93933,12.97292 -2.41463,4.47546 -5.57615,8.48539 -8.46377,12.65803 -3.09077,4.52054 -6.46076,8.65938 -11.0276,11.71386 -6.81096,3.91988 -13.62191,7.83976 -20.43286,11.75964 -0.80379,0.45838 -3.21351,1.83639 -2.41137,1.37513 5.2332,-3.00928 10.44823,-6.05051 15.70457,-9.01919 0.71567,-0.40419 -1.39033,0.87713 -2.07998,1.32427 -1.73171,1.12278 -2.39447,1.58657 -4.09197,2.7404 -4.01833,2.73911 -7.6036,6.03541 -11.12925,9.36737 -3.36804,3.09185 -6.48901,6.40885 -9.4479,9.88888 -2.63348,2.76842 -4.67949,5.85934 -6.23005,9.33279 -1.49023,3.83498 -2.63544,7.80098 -3.93201,11.70842 -1.2794,4.17682 -2.5207,8.38067 -3.42411,12.65743 -0.59614,4.36954 -0.95379,8.76558 -1.48082,13.14673 -0.46594,3.95417 -0.65949,7.93117 -0.74648,11.90935 -0.0721,3.57385 -0.0414,7.1483 -0.0532,10.72251 -0.0867,4.12942 -0.24838,7.13124 1.4076,11.01239 1.49649,4.12669 4.06693,7.63429 6.5529,11.19144 2.59291,3.37135 4.84624,6.97715 7.29981,10.44702 2.73399,3.79788 5.95339,7.2009 9.19466,10.56233 3.16069,3.12524 6.16472,6.4216 9.50185,9.36041 3.5487,2.7768 6.67776,6.00183 9.94443,9.09038 3.58217,3.30923 7.45029,6.20752 10.66996,9.88957 3.20247,3.53721 5.72902,7.58653 8.15893,11.6741 2.60662,3.92772 4.91465,8.02213 6.72621,12.37467 1.28696,3.90073 2.41334,7.83097 3.87621,11.67138 1.42303,3.40409 1.95568,7.00679 2.24962,10.65364 0.19777,3.53848 0.19049,7.08645 0.17052,10.6295 -0.0279,3.99979 -0.0444,7.99933 -0.0321,11.99922 -0.29752,4.25246 -0.85606,8.47765 -1.14583,12.7316 -0.53483,3.65963 -0.95127,7.34166 -1.52821,10.99503 -0.70341,3.06355 -1.18536,6.1552 -1.41759,9.28829 -0.0681,0.58309 -0.13613,1.16619 -0.2042,1.74928 0,0 -18.98771,9.3343 -18.98771,9.3343 l 0,0 c 0.0929,-0.53185 0.18576,-1.0637 0.27864,-1.59555 0.16592,-3.21091 0.4687,-6.40584 1.30286,-9.5245 0.79088,-3.55025 0.88386,-7.23264 1.68233,-10.79056 0.28447,-4.2134 0.75023,-8.4041 1.20091,-12.60184 0.021,-3.99757 0.018,-7.99497 0.015,-11.99257 -0.006,-3.49584 0.0449,-6.99353 -0.1128,-10.48715 -0.20757,-3.45817 -0.61848,-6.88962 -1.9152,-10.13629 -1.43474,-3.83366 -2.69221,-7.70583 -3.83426,-11.63782 -1.68863,-4.29967 -3.99097,-8.28326 -6.5844,-12.10188 -2.31007,-3.99727 -4.76866,-7.92651 -7.88986,-11.35053 -3.24092,-3.56864 -7.10738,-6.40806 -10.59353,-9.72405 -3.25558,-3.07478 -6.45053,-6.20738 -9.93001,-9.03461 -3.32333,-3.03174 -6.43863,-6.27904 -9.57245,-9.50452 -3.29023,-3.45676 -6.59711,-6.92587 -9.364935,-10.82715 -2.450852,-3.48059 -4.797156,-7.03219 -7.350923,-10.43969 -2.526231,-3.69035 -5.143241,-7.32983 -6.728913,-11.55925 -1.950158,-4.36251 -2.067657,-7.07137 -1.872467,-11.74865 -0.0182,-3.58927 -0.0082,-7.1792 0.03554,-10.76816 0.09097,-4.0479 0.234624,-8.096 0.725508,-12.11923 0.49503,-4.42288 1.005745,-8.83128 1.368959,-13.2667 0.766444,-4.39347 2.176933,-8.63903 3.358745,-12.9309 1.308417,-3.94048 2.511215,-7.90733 3.766857,-11.85626 1.583512,-3.60161 3.13203,-7.10681 6.027418,-9.9051 2.978681,-3.51488 5.964031,-7.00791 9.391041,-10.10556 3.523,-3.39013 7.07636,-6.78172 11.02427,-9.67974 8.48986,-5.98108 17.12249,-10.58685 26.36467,-15.93862 0.79762,-0.46187 3.20496,-1.82213 2.40906,-1.35728 -5.14428,3.00456 -10.30298,5.98437 -15.45447,8.97656 1.78246,-0.9717 2.89267,-1.45527 4.44034,-2.74805 2.73688,-2.28613 4.66262,-5.41948 6.90281,-8.1463 2.87217,-4.11307 5.89879,-8.13623 8.50192,-12.42061 2.28212,-4.28664 5.00134,-8.33477 7.03602,-12.74654 1.55023,-3.68002 3.07945,-7.3255 2.68448,-11.39785 0.0115,-3.57728 0.008,-7.15454 0.0239,-10.73181 -0.0152,-3.54825 0.0217,-7.10108 -0.23765,-10.64261 -0.36043,-4.03782 -1.10138,-7.99934 -2.32596,-11.87225 -1.13732,-4.70828 -2.74498,-9.29365 -4.83089,-13.66899 -1.69223,-4.06797 -3.188,-8.26143 -5.68428,-11.92843 -2.12013,-3.47193 -3.87183,-7.17196 -6.31189,-10.44461 -2.49884,-3.44897 -4.74707,-7.14038 -8.45405,-9.44594 -3.88274,-2.38686 -7.74104,-4.80548 -11.64976,-7.14677 -3.77907,-1.99796 -7.87284,-3.66894 -12.1877,-3.89614 -4.91311,0.22157 -9.781493,1.09011 -14.553098,2.26506 0,0 16.843128,-12.87923 16.843128,-12.87923 z"
       inkscape:connector-curvature="0" />
    <text
       xml:space="preserve"
       style="font-style:normal;font-weight:normal;font-size:40px;line-height:125%;font-family:sans-serif;letter-spacing:0px;word-spacing:0px;fill:#000000;fill-opacity:1;stroke:none;stroke-width:1px;stroke-linecap:butt;stroke-linejoin:miter;stroke-opacity:1"
       x="27.142857"
       y="395.21936"
       id="text4234"
       sodipodi:linespacing="125%"><tspan
         sodipodi:role="line"
         id="tspan4236"
         x="27.142857"
         y="395.21936">This is</tspan><tspan
         sodipodi:role="line"
         x="27.142857"
         y="445.21936"
         id="tspan4238">called </tspan><tspan
         sodipodi:role="line"
         x="27.142857"
         y="495.21936"
         id="tspan4240">&quot;The Cloud&quot;</tspan></text>
    <text
       xml:space="preserve"
       style="font-style:normal;font-weight:normal;font-size:40px;line-height:125%;font-family:sans-serif;letter-spacing:0px;word-spacing:0px;fill:#000000;fill-opacity:1;stroke:none;stroke-width:1px;stroke-linecap:butt;stroke-linejoin:miter;stroke-opacity:1"
       x="262.85715"
       y="995.21936"
       id="text4242"
       sodipodi:linespacing="125%"><tspan
         sodipodi:role="line"
         id="tspan4244"
         x="262.85715"
         y="995.21936" /></text>
    <text
       xml:space="preserve"
       style="font-style:normal;font-weight:normal;font-size:40px;line-height:125%;font-family:sans-serif;letter-spacing:0px;word-spacing:0px;fill:#000000;fill-opacity:1;stroke:none;stroke-width:1px;stroke-linecap:butt;stroke-linejoin:miter;stroke-opacity:1"
       x="590"
       y="809.50507"
       id="text4246"
       sodipodi:linespacing="125%"><tspan
         sodipodi:role="line"
         id="tspan4248"
         x="590"
         y="809.50507" /></text>
    <text
       xml:space="preserve"
       style="font-style:normal;font-weight:normal;font-size:40px;line-height:125%;font-family:sans-serif;letter-spacing:0px;word-spacing:0px;fill:#000000;fill-opacity:1;stroke:none;stroke-width:1px;stroke-linecap:butt;stroke-linejoin:miter;stroke-opacity:1"
       x="538.57141"
       y="793.79077"
       id="text4250"
       sodipodi:linespacing="125%"><tspan
         sodipodi:role="line"
         x="538.57141"
         y="793.79077"
         id="tspan4254" /></text>
    <text
       xml:space="preserve"
       style="font-style:normal;font-weight:normal;font-size:40px;line-height:125%;font-family:sans-serif;letter-spacing:0px;word-spacing:0px;fill:#000000;fill-opacity:1;stroke:none;stroke-width:1px;stroke-linecap:butt;stroke-linejoin:miter;stroke-opacity:1"
       x="37.142857"
       y="1022.3622"
       id="text4258"
       sodipodi:linespacing="125%"><tspan
         sodipodi:role="line"
         id="tspan4260"
         x="37.142857"
         y="1022.3622" /></text>
    <text
       xml:space="preserve"
       style="font-style:normal;font-weight:normal;font-size:40px;line-height:125%;font-family:sans-serif;letter-spacing:0px;word-spacing:0px;fill:#000000;fill-opacity:1;stroke:none;stroke-width:1px;stroke-linecap:butt;stroke-linejoin:miter;stroke-opacity:1"
       x="8.5714283"
       y="1028.0765"
       id="text4262"
       sodipodi:linespacing="125%"><tspan
         sodipodi:role="line"
         id="tspan4264"
         x="8.5714283"
         y="1028.0765">Client - the computer in front of you</tspan></text>
    <text
       xml:space="preserve"
       style="font-style:normal;font-weight:normal;font-size:40px;line-height:125%;font-family:sans-serif;letter-spacing:0px;word-spacing:0px;fill:#000000;fill-opacity:1;stroke:none;stroke-width:1px;stroke-linecap:butt;stroke-linejoin:miter;stroke-opacity:1"
       x="274.28571"
       y="988.07648"
       id="text4266"
       sodipodi:linespacing="125%"><tspan
         sodipodi:role="line"
         id="tspan4268"
         x="274.28571"
         y="988.07648">The &quot;Front End&quot;</tspan></text>
    <text
       xml:space="preserve"
       style="font-style:normal;font-weight:normal;font-size:40px;line-height:125%;font-family:sans-serif;letter-spacing:0px;word-spacing:0px;fill:#000000;fill-opacity:1;stroke:none;stroke-width:1px;stroke-linecap:butt;stroke-linejoin:miter;stroke-opacity:1"
       x="288.57144"
       y="545.21936"
       id="text4270"
       sodipodi:linespacing="125%"><tspan
         sodipodi:role="line"
         id="tspan4272"
         x="288.57144"
         y="545.21936">Internet connection,</tspan><tspan
         sodipodi:role="line"
         x="288.57144"
         y="595.21936"
         id="tspan4274">wired or WiFi</tspan></text>
    <path
       style="fill:none;fill-rule:evenodd;stroke:#000000;stroke-width:1px;stroke-linecap:butt;stroke-linejoin:miter;stroke-opacity:1"
       d="m 104.28571,546.64792 c 8.05206,-4.02603 2.99332,-3.18024 10,-1.42857 0.46198,0.11549 1.00266,-0.21296 1.42858,0 0.60233,0.30117 0.78969,1.21561 1.42857,1.42857 0.97186,0.32395 6.38537,-0.37874 7.14285,0 0.60234,0.30117 0.82624,1.1274 1.42858,1.42857 0.42591,0.21296 1.00265,-0.21296 1.42857,0 0.60234,0.30117 0.82623,1.1274 1.42857,1.42857 0.42592,0.21296 1.00265,-0.21296 1.42857,0 0.60234,0.30117 0.95238,0.95238 1.42857,1.42857 1.11584,1.11584 3.053,3.46391 4.28572,4.28572 1.30498,0.86999 3.46684,1.2194 4.28571,2.85714 0.21296,0.42592 -0.21296,1.00265 0,1.42857 0.85714,1.71429 3.42857,2.57143 4.28571,4.28572 0.21296,0.42591 -0.21295,1.00265 0,1.42857 4.73798,4.73797 -0.67343,-1.34687 1.42858,2.85714 0.30117,0.60234 0.95238,0.95238 1.42857,1.42857 0.95238,0.95238 2.11003,1.73648 2.85714,2.85714 0.26414,0.39622 -0.21296,1.00266 0,1.42858 0.29554,0.59107 3.6802,3.88203 4.28571,4.28571 0.88597,0.59064 1.97118,0.83793 2.85715,1.42857 1.30045,0.86697 3.01951,3.65262 4.28571,4.28572 0.85184,0.42591 2.00531,-0.42592 2.85714,0 0.60234,0.30117 0.82624,1.1274 1.42858,1.42857 0.69425,0.34712 9.5718,0 11.42857,0 2.38095,0 4.7619,0 7.14285,0 0.95239,0 1.95364,0.30117 2.85715,0 1.01015,-0.33672 1.84699,-1.09186 2.85714,-1.42857 0.45175,-0.15059 1.00265,0.21295 1.42857,0 1.63774,-0.81887 1.98716,-2.98074 2.85714,-4.28572 0.74711,-1.12066 2.11004,-1.73648 2.85715,-2.85714 0.59064,-0.88596 0.83793,-1.97118 1.42857,-2.85714 0.37355,-0.56034 1.1274,-0.82624 1.42857,-1.42858 0.21296,-0.42591 -0.21296,-1.00265 0,-1.42857 0.30117,-0.60234 1.1274,-0.82623 1.42857,-1.42857 0.16009,-0.32018 0,-5.37481 0,-5.71428 0,-4.76191 0,-9.52381 0,-14.28572 0,-0.33947 -0.16009,-5.3941 0,-5.71428 1.21022,-2.42045 5.10056,-2.92419 7.14286,-4.28572 1.12066,-0.74711 1.65246,-2.2548 2.85714,-2.85714 0.11831,-0.0592 4.1019,-0.0613 4.28572,0 1.01015,0.33672 1.84699,1.09185 2.85714,1.42857 0.45175,0.15058 1.00265,-0.21296 1.42857,0 1.20468,0.60234 1.65247,2.2548 2.85714,2.85714 0.42592,0.21296 1.00266,-0.21296 1.42857,0 0.60234,0.30117 0.82624,1.12741 1.42858,1.42857 0.42591,0.21296 1.00265,-0.21295 1.42857,0 0.3793,0.18966 4.09606,3.90642 4.28571,4.28572 1.26444,2.52888 -2.12491,0.48815 1.42857,2.85714 0.88597,0.59064 2.10422,0.67565 2.85715,1.42857 0.67343,0.67344 -0.42592,2.00531 0,2.85715 0.30117,0.60233 0.95238,0.95238 1.42857,1.42857 0,0.95238 -0.30117,1.95363 0,2.85714 0.21296,0.63888 1.1274,0.82623 1.42857,1.42857 0.21296,0.42592 -0.21296,1.00266 0,1.42857 0.30117,0.60234 1.21561,0.7897 1.42857,1.42857 0.30117,0.90351 -0.23099,1.9332 0,2.85715 -0.86104,2.58563 2.3142,2.65689 2.85714,4.28571 0.30117,0.90351 -0.30117,1.95364 0,2.85714 0.21738,0.65215 3.64235,3.64235 4.28572,4.28572 1.90476,1.90476 3.80952,3.80952 5.71428,5.71428 0.47619,0.47619 0.82624,1.12741 1.42857,1.42858 0.42592,0.21295 1.00266,-0.21296 1.42858,0 0.60233,0.30117 0.82623,1.1274 1.42857,1.42857 0.85183,0.42592 2.06471,-0.52829 2.85714,0 1.12066,0.74711 1.73648,2.11003 2.85714,2.85714 0.24609,0.16406 6.93895,0 7.14286,0 0.47619,0 1.00265,0.21296 1.42857,0 0.3793,-0.18965 4.09607,-3.90641 4.28572,-4.28571 0.57142,-1.14286 -0.57143,-3.14286 0,-4.28572 0.30117,-0.60234 0.95238,-0.95238 1.42857,-1.42857 1.6345,-1.6345 1.99227,-1.6911 2.85714,-4.28571 0.30117,-0.90351 0,-1.90477 0,-2.85715 0,-1.90476 0,-3.80952 0,-5.71428 0,-4.76191 0,-9.52381 0,-14.28572 0,-1.28766 -0.29971,-6.24371 0,-7.14285 0.33672,-1.01016 1.09185,-1.84699 1.42857,-2.85715 0.30117,-0.9035 -0.30117,-1.95363 0,-2.85714 0.33672,-1.01015 1.17032,-1.82414 1.42857,-2.85714 1.17686,-4.70744 -1.5056,-1.35155 1.42857,-4.28572"
       id="path4276"
       inkscape:connector-curvature="0" />
  </g>
</svg>
